<svg width="185" height="26" viewBox="0 0 185 26" fill="none" xmlns="http://www.w3.org/2000/svg">
<path d="M7.00926 10.4001H3.69304V4.52141H6.78314C8.59198 4.52141 9.34566 5.42582 9.34566 7.46077C9.34566 9.49571 7.53684 10.4001 7.00926 10.4001ZM6.93389 21.3285H3.69304V14.6207H7.00926C9.19494 14.6207 9.94862 15.5252 9.94862 18.0123C9.94862 20.4995 8.96883 21.3285 6.93389 21.3285ZM13.1894 7.46077C13.1894 2.8633 10.9284 0.300781 6.70777 0.300781H0V25.5491H6.85852C11.3052 25.5491 13.7924 22.9113 13.7924 18.0123C13.7924 15.4498 13.0387 13.4149 11.6067 12.209C12.6823 10.8649 13.2435 9.18139 13.1894 7.46077Z" fill="white"/>
<path d="M26.4548 0.300781H22.7617V25.5491H34.6699V21.3285H26.4548V0.300781Z" fill="white"/>
<path d="M54.4159 16.8818C54.4159 21.1778 52.3056 21.7054 50.7228 21.7054C49.1401 21.7054 47.1051 21.1778 47.1051 16.8818V0.300781H43.4121V17.334C43.4121 25.323 49.0647 26.0014 50.7228 26.0014C52.3809 26.0014 58.1089 25.323 58.1089 17.334V0.300781H54.4159V16.8818Z" fill="white"/>
<path d="M80.0412 4.52141V0.300781H67.6055V25.5491H80.0412V21.3285H71.2985V14.6207H79.2122V10.4001H71.2985V4.52141H80.0412Z" fill="white"/>
<path fill-rule="evenodd" clip-rule="evenodd" d="M89.6895 0H184.503V25.9418H89.6895V0ZM101.068 4.37323H103.856L98.6558 12.2869L104.308 21.5572H101.52L97.2992 14.3972L96.7716 15.2263V21.5572H94.5859V4.37323H96.7716V11.4578L101.068 4.37323ZM109.811 4.37323H107.626V21.4969H109.811V4.37323ZM115.839 4.37323L121.642 15.9799L121.567 4.37323H123.752V21.5572H122.019L116.216 9.95048L116.291 21.5572H114.105V4.37323H115.839ZM132.345 14.5505H134.908V18.9218C134.227 19.1438 133.513 19.2458 132.798 19.2233C130.235 19.2233 129.708 15.8317 129.708 12.9677C129.708 10.1037 130.235 6.71216 132.798 6.71216C134.132 6.74871 135.432 7.13885 136.566 7.84269L136.792 7.99342V5.2048H136.717C135.53 4.51273 134.171 4.17288 132.798 4.22501C129.331 4.22501 127.447 7.23974 127.447 13.0431C127.447 18.8465 129.331 21.8612 132.798 21.8612C134.277 21.9275 135.744 21.5608 137.018 20.806H137.094V11.9879H132.345V14.5505ZM145.007 18.9193C147.343 18.9193 148.398 17.0351 148.398 12.9652C148.398 8.89532 147.343 7.01112 145.007 7.01112H143.273V18.9193H145.007ZM141.087 4.37323H144.931C148.775 4.37323 150.659 7.23722 150.659 12.9652C150.659 18.6932 148.775 21.5572 144.931 21.5572H141.087V4.37323ZM159.252 19.2221C156.84 19.2221 156.388 16.7349 156.388 12.9665C156.388 9.19811 156.84 6.71096 159.252 6.71096C161.664 6.71096 162.116 9.19811 162.116 12.9665C162.116 16.7349 161.664 19.2221 159.252 19.2221ZM159.252 4.14844C154.73 4.14844 154.127 8.59516 154.127 12.9665C154.127 17.3379 154.73 21.7846 159.252 21.7846C161.739 21.7846 164.377 20.7295 164.377 12.9665C164.377 8.59516 163.774 4.14844 159.252 4.14844ZM174.25 15.4524L177.943 4.37323H180.505V21.5572H178.32L178.395 9.49827L175.079 19.2961H173.421L170.18 9.49827L170.255 21.5572H168.07V4.37323H170.557L174.25 15.4524Z" fill="white"/>
</svg>
