<svg width="168" height="44" viewBox="0 0 168 44" fill="none" xmlns="http://www.w3.org/2000/svg">
<g id="Clip path group">
<mask id="mask0_3_159" style="mask-type:luminance" maskUnits="userSpaceOnUse" x="0" y="0" width="168" height="44">
<g id="a">
<path id="Vector" d="M0.680176 0.0141602H167.369V43.9389H0.680176V0.0141602Z" fill="white"/>
</g>
</mask>
<g mask="url(#mask0_3_159)">
<g id="Group">
<path id="Vector_2" d="M18.1559 21.2302H23.5331L24.514 15.7805H19.1006L18.1559 21.2302Z" fill="#007AFF"/>
<path id="Vector_3" d="M121.192 35.4399C120.21 35.4399 119.339 36.2029 119.157 37.1839L118.467 41.144C118.394 41.6527 118.503 42.0886 118.794 42.4519C119.084 42.8152 119.557 42.9969 120.065 42.9969C121.046 42.9969 121.918 42.2339 122.1 41.253L122.791 37.2928C122.863 36.7842 122.754 36.3483 122.463 35.9849C122.173 35.6579 121.737 35.4399 121.192 35.4399Z" fill="#007AFF"/>
<path id="Vector_4" d="M49.4729 15.8191C49.4001 15.8191 27.3833 15.8191 27.3833 15.8191L26.4386 21.2325H30.8348C31.6341 21.2325 32.2517 21.8864 32.2517 22.6494C32.2517 23.4125 31.5978 24.0664 30.8348 24.0664H25.93L25.0581 28.9712C24.9491 29.6614 24.3678 30.1337 23.6776 30.1337C23.6048 30.1337 23.4959 30.1337 23.4232 30.0974C22.6602 29.952 22.1515 29.2255 22.2606 28.4626L23.0235 24.0664H17.6465L16.7745 28.9712C16.6655 29.6614 16.0842 30.1337 15.3939 30.1337C15.3212 30.1337 15.2123 30.1337 15.1396 30.0974C14.3767 29.952 13.868 29.2255 13.977 28.4626L14.7399 24.0664H10.3802C9.58087 24.0664 8.96323 23.4125 8.96323 22.6494C8.96323 21.8864 9.6172 21.2325 10.3802 21.2325H15.2849L16.2295 15.7828H11.8334C11.0341 15.7828 10.4165 15.1289 10.4165 14.3659C10.4165 13.603 11.0705 12.9489 11.8334 12.9489H16.7382L17.6101 8.0442C17.7555 7.28123 18.4821 6.73626 19.2451 6.88158C19.6083 6.95424 19.9354 7.17224 20.1534 7.46289C20.3713 7.78987 20.444 8.15319 20.3713 8.5165L19.6083 12.9126H25.0218L25.8937 8.00786C26.0391 7.2449 26.7657 6.69992 27.5287 6.84525C27.8919 6.91792 28.219 7.13591 28.4369 7.42656C28.6549 7.71722 28.7276 8.11685 28.6549 8.48017L27.8919 12.8763H38.2464L32.506 2.95778C31.7795 1.68618 29.9265 0.632568 28.4369 0.632568H13.2503C11.7608 0.632568 9.94418 1.68618 9.18122 2.95778L1.58794 16.1098C0.861312 17.3814 0.861312 19.4886 1.58794 20.7965L9.18122 33.9485C9.90786 35.2201 11.7608 36.2737 13.2503 36.2737H28.4369C29.9265 36.2737 31.743 35.2201 32.506 33.9485L40.0994 20.7965C40.3173 20.397 40.4626 19.9609 40.5716 19.4523H47.1113L44.4228 34.8569C44.3501 35.3655 44.4591 35.8015 44.7498 36.1648C45.0404 36.528 45.5127 36.7097 46.0214 36.7097C47.0023 36.7097 47.8742 35.9468 48.0559 34.9658L51.1078 17.6358C51.1804 17.1634 51.0714 16.6911 50.8171 16.3642C50.4539 16.0008 50.0178 15.8191 49.4729 15.8191Z" fill="#007AFF"/>
<path id="Vector_5" d="M65.8218 15.7805C64.0779 15.7805 62.6609 16.2165 61.3167 17.2338L59.6817 18.4691L59.7545 18.0694C59.8271 17.5608 59.7182 17.0884 59.3911 16.6887C59.1005 16.3255 58.6281 16.1075 58.1195 16.1075C57.1385 16.1075 56.3029 16.9067 56.1213 17.924L53.1422 34.7819C53.0331 35.2905 53.1422 35.7991 53.4328 36.1261C53.7234 36.4532 54.1231 36.6347 54.6318 36.6347C55.649 36.6347 56.5936 35.8718 56.7753 34.8909L58.7372 23.7735C58.8461 23.1921 58.9915 22.8652 59.6454 22.3565L62.8426 19.9223C63.4966 19.4136 64.2596 19.1593 64.9498 19.1593C66.2942 19.1593 67.2751 19.559 67.929 20.322C68.8737 21.4482 69.0917 23.3375 68.6193 25.9896L67.0571 34.7819C66.9844 35.2905 67.0934 35.7265 67.3841 36.0898C67.6747 36.4532 68.147 36.6347 68.6557 36.6347C69.6366 36.6347 70.5085 35.8718 70.6902 34.8909L72.2525 26.0987C72.9065 22.3202 72.5068 19.5227 71.0172 17.7788C69.9273 16.4708 68.147 15.7805 65.8218 15.7805Z" fill="#007AFF"/>
<path id="Vector_6" d="M86.7489 15.7805C80.5725 15.7805 76.8668 21.1212 75.9221 26.3893C75.3409 29.7681 75.9221 32.8199 77.5207 34.7455C78.8287 36.3078 80.7179 37.0707 83.1158 37.0707C85.1867 37.0707 87.3665 36.3441 88.8924 35.1452C89.3285 34.8182 89.6191 34.2006 89.6918 33.7646C89.7645 33.2559 89.6918 32.7836 89.4011 32.4567C89.1468 32.1297 88.7109 31.948 88.2385 31.948C87.6936 31.948 87.2576 32.2023 86.7126 32.5293C85.986 32.9653 85.114 33.4739 83.588 33.4739C82.3164 33.4739 81.3355 33.0379 80.609 32.2387C79.5917 31.0034 79.2283 28.9325 79.6643 26.4983C80.2819 22.9378 82.5708 19.3773 86.204 19.3773C87.7299 19.3773 88.3475 19.8496 88.8924 20.2856C89.2921 20.5763 89.6554 20.8669 90.2368 20.8669C91.2178 20.8669 92.0533 20.1403 92.235 19.123C92.344 18.5417 92.1623 17.9968 91.7627 17.4881C90.8544 16.3255 88.5292 15.7805 86.7489 15.7805Z" fill="#007AFF"/>
<path id="Vector_7" d="M99.7187 6.80884C98.7378 6.80884 97.9022 7.53547 97.7205 8.55275L93.1064 34.8567C93.0338 35.3653 93.1427 35.8014 93.4334 36.1646C93.724 36.528 94.1963 36.7097 94.705 36.7097C95.6859 36.7097 96.5578 35.9467 96.7395 34.9658L101.317 8.66174C101.39 8.18944 101.281 7.71713 100.99 7.39014C100.7 7.02683 100.227 6.80884 99.7187 6.80884Z" fill="#007AFF"/>
<path id="Vector_8" d="M121.336 18.0334C121.445 17.5248 121.336 17.0161 121.045 16.6891C120.755 16.3621 120.356 16.1804 119.846 16.1804C118.829 16.1804 117.885 16.9434 117.703 17.9243L115.741 29.0418C115.632 29.623 115.487 29.9864 114.833 30.4588L111.636 32.8929C110.982 33.4015 110.219 33.6558 109.528 33.6558C108.184 33.6558 107.203 33.2563 106.549 32.4933C105.605 31.367 105.387 29.4778 105.859 26.8255L107.421 18.0334C107.494 17.5248 107.385 17.0888 107.094 16.7254C106.804 16.3621 106.331 16.1804 105.823 16.1804C104.842 16.1804 103.97 16.9434 103.788 17.9243L102.226 26.7166C101.572 30.4588 102.008 33.3289 103.461 35.0728C104.587 36.417 106.368 37.1074 108.656 37.1074C110.4 37.1074 111.854 36.6351 113.198 35.6178L116.359 33.2563C118.829 31.4034 119.193 30.1681 119.483 28.6058L121.336 18.0334Z" fill="#007AFF"/>
<path id="Vector_9" d="M144.516 6.80884C143.499 6.80884 142.591 7.53547 142.446 8.55275L140.846 17.7082C140.556 17.4176 140.23 17.127 139.939 16.9453C138.813 16.146 137.65 15.8191 135.942 15.8191C129.766 15.8191 126.06 21.1598 125.116 26.4278C124.498 29.952 125.043 33.0402 126.605 34.9295C127.84 36.3826 129.657 37.1456 131.982 37.1456C133.617 37.1456 134.635 36.7823 136.124 35.6924L137.868 34.4208L137.795 34.8204C137.722 35.329 137.832 35.8014 138.122 36.1646C138.413 36.528 138.849 36.7097 139.357 36.7097C140.338 36.7097 141.247 35.9467 141.392 34.9295L146.007 8.66174C146.079 8.1531 145.97 7.6808 145.679 7.35382C145.461 6.99049 145.026 6.80884 144.516 6.80884ZM139.394 25.9555L138.849 29.0437C138.74 29.5886 138.595 29.952 137.904 30.4606L134.635 33.0038C133.872 33.5851 133.072 33.6579 132.528 33.6579C131.329 33.6579 130.42 33.2582 129.766 32.5315C128.748 31.3326 128.458 29.2254 128.931 26.6095C129.549 23.0126 131.837 19.4158 135.47 19.4158C136.851 19.4158 137.904 19.8519 138.595 20.6511C139.502 21.7047 139.794 23.594 139.394 25.9555Z" fill="#007AFF"/>
<path id="Vector_10" d="M163.08 18.1783C161.773 16.6524 159.92 15.7805 157.776 15.7805C154.834 15.7805 152.218 16.9795 150.219 19.2684C148.549 21.1575 147.35 23.7007 146.877 26.4256C146.296 29.8044 146.877 32.8562 148.512 34.7819C149.82 36.3441 151.709 37.1434 154.144 37.1434C155.56 37.1434 160.902 36.3078 161.337 33.8372C161.446 33.3286 161.337 32.8199 161.047 32.493C160.792 32.166 160.392 32.0207 159.92 32.0207C159.375 32.0207 158.794 32.275 158.139 32.5656C157.232 32.9653 156.106 33.4739 154.652 33.4739C153.417 33.4739 152.399 33.0743 151.709 32.275C150.765 31.2214 150.364 29.5501 150.547 27.5518H162.354C163.626 27.5518 164.389 26.6799 164.679 24.8634C165.152 22.3928 164.534 19.9223 163.08 18.1783ZM160.937 23.9187H151.455C152.69 21.0486 154.834 19.341 157.305 19.341C158.467 19.341 159.338 19.7043 159.956 20.3583C160.682 21.1575 161.01 22.3928 160.937 23.9187Z" fill="#007AFF"/>
<path id="Vector_11" d="M51.2174 5.68335C50.2364 5.68335 49.3644 6.44631 49.1828 7.42726L48.4925 11.3874C48.4199 11.896 48.5288 12.3321 48.8194 12.6953C49.1101 13.0586 49.5824 13.2403 50.091 13.2403C51.072 13.2403 51.9439 12.4773 52.1256 11.4964L52.8159 7.53625C52.8886 7.02761 52.7796 6.59164 52.489 6.22831C52.1982 5.90134 51.7623 5.68335 51.2174 5.68335Z" fill="#007AFF"/>
</g>
</g>
</g>
</svg>
