<svg width="47" height="47" viewBox="0 0 47 47" fill="none" xmlns="http://www.w3.org/2000/svg">
<circle cx="23.5083" cy="23.2344" r="22.4731" fill="white" stroke="#007AFF" stroke-width="0.71"/>
<path opacity="0.4" fill-rule="evenodd" clip-rule="evenodd" d="M15.1294 28.5932C15.1294 28.2225 15.4078 27.9219 15.7512 27.9219H21.9982C22.3416 27.9219 22.6199 28.2225 22.6199 28.5932C22.6199 28.964 22.3416 29.2646 21.9982 29.2646H15.7512C15.4078 29.2646 15.1294 28.964 15.1294 28.5932Z" fill="#007AFF"/>
<path fill-rule="evenodd" clip-rule="evenodd" d="M29.0038 26.6864C27.9493 26.6864 27.1385 27.5646 27.1385 28.5929C27.1385 29.6203 27.9495 30.4994 29.0038 30.4994C30.0581 30.4994 30.8691 29.6203 30.8691 28.5929C30.8691 27.5646 30.0583 26.6864 29.0038 26.6864ZM25.895 28.5929C25.895 26.7716 27.3112 25.3438 29.0038 25.3438C30.6964 25.3438 32.1126 26.7716 32.1126 28.5929C32.1126 30.4129 30.6966 31.842 29.0038 31.842C27.311 31.842 25.895 30.4129 25.895 28.5929Z" fill="#007AFF"/>
<path opacity="0.4" fill-rule="evenodd" clip-rule="evenodd" d="M24.6235 18.0932C24.6235 17.7224 24.9019 17.4219 25.2453 17.4219H31.4933C31.8367 17.4219 32.1151 17.7224 32.1151 18.0932C32.1151 18.4639 31.8367 18.7645 31.4933 18.7645H25.2453C24.9019 18.7645 24.6235 18.4639 24.6235 18.0932Z" fill="#007AFF"/>
<path fill-rule="evenodd" clip-rule="evenodd" d="M15.1294 18.0968C15.1294 16.2768 16.5454 14.8477 18.2382 14.8477C19.931 14.8477 21.347 16.2768 21.347 18.0968C21.347 19.918 19.9308 21.3459 18.2382 21.3459C16.5456 21.3459 15.1294 19.918 15.1294 18.0968ZM18.2382 16.1903C17.1838 16.1903 16.3729 17.0694 16.3729 18.0968C16.3729 19.1251 17.1837 20.0033 18.2382 20.0033C19.2927 20.0033 20.1034 19.1251 20.1034 18.0968C20.1034 17.0694 19.2925 16.1903 18.2382 16.1903Z" fill="#007AFF"/>
</svg>
