<svg width="186" height="27" viewBox="0 0 186 27" fill="none" xmlns="http://www.w3.org/2000/svg">
<path d="M7.80223 10.6501H4.48601V4.77141H7.57611C9.38495 4.77141 10.1386 5.67582 10.1386 7.71077C10.1386 9.74571 8.32981 10.6501 7.80223 10.6501ZM7.72686 21.5785H4.48601V14.8707H7.80223C9.98791 14.8707 10.7416 15.7752 10.7416 18.2623C10.7416 20.7495 9.7618 21.5785 7.72686 21.5785ZM13.9824 7.71077C13.9824 3.1133 11.7214 0.550781 7.50074 0.550781H0.792969V25.7991H7.65149C12.0982 25.7991 14.5854 23.1613 14.5854 18.2623C14.5854 15.6998 13.8317 13.6649 12.3997 12.459C13.4753 11.1149 14.0365 9.43139 13.9824 7.71077Z" fill="black"/>
<path d="M27.2477 0.550781H23.5547V25.7991H35.4629V21.5785H27.2477V0.550781Z" fill="black"/>
<path d="M55.2088 17.1318C55.2088 21.4278 53.0985 21.9554 51.5158 21.9554C49.9331 21.9554 47.8981 21.4278 47.8981 17.1318V0.550781H44.2051V17.584C44.2051 25.573 49.8577 26.2514 51.5158 26.2514C53.1739 26.2514 58.9019 25.573 58.9019 17.584V0.550781H55.2088V17.1318Z" fill="black"/>
<path d="M80.8342 4.77141V0.550781H68.3984V25.7991H80.8342V21.5785H72.0915V14.8707H80.0051V10.6501H72.0915V4.77141H80.8342Z" fill="black"/>
<path fill-rule="evenodd" clip-rule="evenodd" d="M90.4824 0.25H185.296V26.1918H90.4824V0.25ZM101.861 4.62323H104.649L99.4488 12.5369L105.101 21.8072H102.313L98.0922 14.6472L97.5646 15.4763V21.8072H95.3789V4.62323H97.5646V11.7078L101.861 4.62323ZM110.604 4.62323H108.419V21.7469H110.604V4.62323ZM116.632 4.62323L122.435 16.2299L122.36 4.62323H124.545V21.8072H122.812L117.009 10.2005L117.084 21.8072H114.898V4.62323H116.632ZM133.138 14.8005H135.701V19.1718C135.02 19.3938 134.306 19.4958 133.591 19.4733C131.028 19.4733 130.501 16.0817 130.501 13.2177C130.501 10.3537 131.028 6.96216 133.591 6.96216C134.925 6.99871 136.225 7.38885 137.359 8.09269L137.585 8.24342V5.4548H137.51C136.323 4.76273 134.964 4.42288 133.591 4.47501C130.124 4.47501 128.239 7.48974 128.239 13.2931C128.239 19.0965 130.124 22.1112 133.591 22.1112C135.07 22.1775 136.537 21.8108 137.811 21.056H137.887V12.2379H133.138V14.8005ZM145.8 19.1693C148.136 19.1693 149.191 17.2851 149.191 13.2152C149.191 9.14532 148.136 7.26112 145.8 7.26112H144.066V19.1693H145.8ZM141.88 4.62323H145.724C149.568 4.62323 151.452 7.48722 151.452 13.2152C151.452 18.9432 149.568 21.8072 145.724 21.8072H141.88V4.62323ZM160.045 19.4721C157.633 19.4721 157.181 16.9849 157.181 13.2165C157.181 9.44811 157.633 6.96096 160.045 6.96096C162.457 6.96096 162.909 9.44811 162.909 13.2165C162.909 16.9849 162.457 19.4721 160.045 19.4721ZM160.045 4.39844C155.523 4.39844 154.92 8.84516 154.92 13.2165C154.92 17.5879 155.523 22.0346 160.045 22.0346C162.532 22.0346 165.17 20.9795 165.17 13.2165C165.17 8.84516 164.567 4.39844 160.045 4.39844ZM175.043 15.7024L178.736 4.62323H181.298V21.8072H179.113L179.188 9.74827L175.872 19.5461H174.214L170.973 9.74827L171.048 21.8072H168.863V4.62323H171.35L175.043 15.7024Z" fill="black"/>
</svg>
