<svg fill="none" height="486" viewBox="0 0 1440 486" width="1440" xmlns="http://www.w3.org/2000/svg"><path d="m-54.9154 24.1033c255.9954-50.416 457.5404 37.7024 721.6624 14.9056 89.395-7.5624 162.536-22.6872 243.805-35.29116 97.518-12.7136 146.278 10.08316 235.678 27.72876 105.65 20.1664 189.96-31.45516318 322.63 8.3296v465.7999h-1523.7754z" fill="#55d7ed" opacity=".2"/><path d="m-53.4932 104.221c87.5665 11.289 162.7392-17.0977 244.4142-28.4961 102.398-15.1248 201.545-3.7264 300.896 13.2616 64.202 13.2615 134.296 30.3595 201.545 34.0855 61.358 3.836 128.404-11.289 186.917-18.851 52.418-5.6993 102.195-13.2617 154.821-17.0977 78.83-3.836 122.51 15.1247 195.65 28.3867 78.83 13.261 157.66-16.9883 239.54-7.563v397.629h-1523.7832z" fill="#72cef0" opacity=".2"/><path d="m-54.9154 187.517c81.4714 58.746 287.2834 17.098 383.3834-3.726 96.099-20.824 191.996-34.196 293.988-20.934 72.735 11.398 157.051 28.496 232.63 32.222 58.31 1.973 98.944-22.687 154.414-24.55 95.89-3.836 168.63 49.21 267.57 39.785 69.89-5.699 119.06-33.757 191.79-31.894v327.156h-1523.7754z" fill="#68c2ea" fill-opacity=".5"/><path d="m-54.9154 242.427c70.9066 56.882 269.8104 20.933 357.5804 7.672 101.992-15.235 223.894-18.961 325.886 0 85.128 15.124 153.19 28.386 240.96 28.386 82.284 0 152.989-20.824 229.579-37.922 76.6-17.097 110.53-3.726 184.28 7.563 62.37 9.535 125.97 5.699 185.49 11.398v246.052h-1523.7754z" fill="#54b7e3"/><path d="m-56.5202 375.472c56.88775 11.288 142.6258-5.919 193.4182-21.044 173.305-51.183 367.739 5.7 544.091 17.098 98.741 7.562 200.327 11.289 296.02-3.836 77.611-13.262 140.391-15.125 218.201-7.562 80.66 5.699 194.24-1.864 272.05-7.563-3.05-1.973 15.03-1.973 0 0v181.607h-1523.7802z" fill="#4e9dd6"/><path d="m471.093 253.058-1.625-1.425.406.329z" fill="#fff"/></svg>